<mxfile host="app.diagrams.net" modified="2022-05-22T07:51:09.772Z" agent="5.0 (Windows)" etag="CuhNzTsQ58onE0uUegIr" version="18.1.1" type="github">
  <diagram id="fFNd2Jv2OOi4PG3JJ3dx" name="Page-1">
    <mxGraphModel dx="1422" dy="780" grid="1" gridSize="10" guides="1" tooltips="1" connect="1" arrows="1" fold="1" page="1" pageScale="1" pageWidth="850" pageHeight="1100" math="0" shadow="0">
      <root>
        <mxCell id="0" />
        <mxCell id="1" parent="0" />
        <mxCell id="at_urgfjE1kt4REhZvFI-2" value="Resume" style="swimlane;fontStyle=1;align=center;verticalAlign=top;childLayout=stackLayout;horizontal=1;startSize=26;horizontalStack=0;resizeParent=1;resizeParentMax=0;resizeLast=0;collapsible=1;marginBottom=0;" parent="1" vertex="1">
          <mxGeometry x="60" y="50" width="300" height="230" as="geometry">
            <mxRectangle x="60" y="50" width="80" height="26" as="alternateBounds" />
          </mxGeometry>
        </mxCell>
        <mxCell id="at_urgfjE1kt4REhZvFI-3" value="- uuid String&#xa;- fullname String&#xa;- contactInfo HashMap&lt;ContactType, String&gt;&#xa;- sections HashMap&lt;SectionType, AbstractSection&gt;" style="text;strokeColor=none;fillColor=none;align=left;verticalAlign=top;spacingLeft=4;spacingRight=4;overflow=hidden;rotatable=0;points=[[0,0.5],[1,0.5]];portConstraint=eastwest;" parent="at_urgfjE1kt4REhZvFI-2" vertex="1">
          <mxGeometry y="26" width="300" height="84" as="geometry" />
        </mxCell>
        <mxCell id="at_urgfjE1kt4REhZvFI-4" value="" style="line;strokeWidth=1;fillColor=none;align=left;verticalAlign=middle;spacingTop=-1;spacingLeft=3;spacingRight=3;rotatable=0;labelPosition=right;points=[];portConstraint=eastwest;" parent="at_urgfjE1kt4REhZvFI-2" vertex="1">
          <mxGeometry y="110" width="300" height="20" as="geometry" />
        </mxCell>
        <mxCell id="at_urgfjE1kt4REhZvFI-5" value="+ setUuid(): void&#xa;+ getUuid(): uuid&#xa;+ setFullNameUuid(): void&#xa;+ getFullName():Â fullName&#xa;+getContact(ContactType):String&#xa;+getSection(ContactType):String" style="text;strokeColor=none;fillColor=none;align=left;verticalAlign=top;spacingLeft=4;spacingRight=4;overflow=hidden;rotatable=0;points=[[0,0.5],[1,0.5]];portConstraint=eastwest;" parent="at_urgfjE1kt4REhZvFI-2" vertex="1">
          <mxGeometry y="130" width="300" height="100" as="geometry" />
        </mxCell>
        <mxCell id="at_urgfjE1kt4REhZvFI-7" value="AbstractSection" style="swimlane;fontStyle=1;align=center;verticalAlign=top;childLayout=stackLayout;horizontal=1;startSize=26;horizontalStack=0;resizeParent=1;resizeParentMax=0;resizeLast=0;collapsible=1;marginBottom=0;labelBorderColor=none;" parent="1" vertex="1">
          <mxGeometry x="400" y="330" width="160" height="34" as="geometry" />
        </mxCell>
        <mxCell id="at_urgfjE1kt4REhZvFI-9" value="" style="line;strokeWidth=1;fillColor=none;align=left;verticalAlign=middle;spacingTop=-1;spacingLeft=3;spacingRight=3;rotatable=0;labelPosition=right;points=[];portConstraint=eastwest;labelBorderColor=default;" parent="at_urgfjE1kt4REhZvFI-7" vertex="1">
          <mxGeometry y="26" width="160" height="8" as="geometry" />
        </mxCell>
        <mxCell id="at_urgfjE1kt4REhZvFI-11" value="TextSection" style="swimlane;fontStyle=1;align=center;verticalAlign=top;childLayout=stackLayout;horizontal=1;startSize=26;horizontalStack=0;resizeParent=1;resizeParentMax=0;resizeLast=0;collapsible=1;marginBottom=0;labelBorderColor=none;" parent="1" vertex="1">
          <mxGeometry x="80" y="440" width="160" height="110" as="geometry" />
        </mxCell>
        <mxCell id="at_urgfjE1kt4REhZvFI-12" value="- textSection String" style="text;strokeColor=none;fillColor=none;align=left;verticalAlign=top;spacingLeft=4;spacingRight=4;overflow=hidden;rotatable=0;points=[[0,0.5],[1,0.5]];portConstraint=eastwest;labelBorderColor=none;" parent="at_urgfjE1kt4REhZvFI-11" vertex="1">
          <mxGeometry y="26" width="160" height="26" as="geometry" />
        </mxCell>
        <mxCell id="at_urgfjE1kt4REhZvFI-13" value="" style="line;strokeWidth=1;fillColor=none;align=left;verticalAlign=middle;spacingTop=-1;spacingLeft=3;spacingRight=3;rotatable=0;labelPosition=right;points=[];portConstraint=eastwest;labelBorderColor=default;" parent="at_urgfjE1kt4REhZvFI-11" vertex="1">
          <mxGeometry y="52" width="160" height="8" as="geometry" />
        </mxCell>
        <mxCell id="at_urgfjE1kt4REhZvFI-14" value="+ setTextField(): void&#xa;+ getTextField(): textField" style="text;strokeColor=none;fillColor=none;align=left;verticalAlign=top;spacingLeft=4;spacingRight=4;overflow=hidden;rotatable=0;points=[[0,0.5],[1,0.5]];portConstraint=eastwest;labelBorderColor=none;" parent="at_urgfjE1kt4REhZvFI-11" vertex="1">
          <mxGeometry y="60" width="160" height="50" as="geometry" />
        </mxCell>
        <mxCell id="at_urgfjE1kt4REhZvFI-15" value="ListSection" style="swimlane;fontStyle=1;align=center;verticalAlign=top;childLayout=stackLayout;horizontal=1;startSize=26;horizontalStack=0;resizeParent=1;resizeParentMax=0;resizeLast=0;collapsible=1;marginBottom=0;labelBorderColor=none;" parent="1" vertex="1">
          <mxGeometry x="400" y="436" width="160" height="86" as="geometry" />
        </mxCell>
        <mxCell id="at_urgfjE1kt4REhZvFI-16" value="- sections List&lt;String&gt;" style="text;strokeColor=none;fillColor=none;align=left;verticalAlign=top;spacingLeft=4;spacingRight=4;overflow=hidden;rotatable=0;points=[[0,0.5],[1,0.5]];portConstraint=eastwest;labelBorderColor=none;" parent="at_urgfjE1kt4REhZvFI-15" vertex="1">
          <mxGeometry y="26" width="160" height="26" as="geometry" />
        </mxCell>
        <mxCell id="at_urgfjE1kt4REhZvFI-17" value="" style="line;strokeWidth=1;fillColor=none;align=left;verticalAlign=middle;spacingTop=-1;spacingLeft=3;spacingRight=3;rotatable=0;labelPosition=right;points=[];portConstraint=eastwest;labelBorderColor=default;" parent="at_urgfjE1kt4REhZvFI-15" vertex="1">
          <mxGeometry y="52" width="160" height="8" as="geometry" />
        </mxCell>
        <mxCell id="at_urgfjE1kt4REhZvFI-18" value="+ getFields(): List&lt;String&gt;" style="text;strokeColor=none;fillColor=none;align=left;verticalAlign=top;spacingLeft=4;spacingRight=4;overflow=hidden;rotatable=0;points=[[0,0.5],[1,0.5]];portConstraint=eastwest;labelBorderColor=none;" parent="at_urgfjE1kt4REhZvFI-15" vertex="1">
          <mxGeometry y="60" width="160" height="26" as="geometry" />
        </mxCell>
        <mxCell id="at_urgfjE1kt4REhZvFI-19" value="EventPointSection" style="swimlane;fontStyle=1;align=center;verticalAlign=top;childLayout=stackLayout;horizontal=1;startSize=26;horizontalStack=0;resizeParent=1;resizeParentMax=0;resizeLast=0;collapsible=1;marginBottom=0;labelBorderColor=none;" parent="1" vertex="1">
          <mxGeometry x="680" y="430" width="210" height="120" as="geometry" />
        </mxCell>
        <mxCell id="at_urgfjE1kt4REhZvFI-20" value="- sections List&lt;EventPoint&gt;" style="text;strokeColor=none;fillColor=none;align=left;verticalAlign=top;spacingLeft=4;spacingRight=4;overflow=hidden;rotatable=0;points=[[0,0.5],[1,0.5]];portConstraint=eastwest;labelBorderColor=none;" parent="at_urgfjE1kt4REhZvFI-19" vertex="1">
          <mxGeometry y="26" width="210" height="34" as="geometry" />
        </mxCell>
        <mxCell id="at_urgfjE1kt4REhZvFI-21" value="" style="line;strokeWidth=1;fillColor=none;align=left;verticalAlign=middle;spacingTop=-1;spacingLeft=3;spacingRight=3;rotatable=0;labelPosition=right;points=[];portConstraint=eastwest;labelBorderColor=default;" parent="at_urgfjE1kt4REhZvFI-19" vertex="1">
          <mxGeometry y="60" width="210" height="8" as="geometry" />
        </mxCell>
        <mxCell id="at_urgfjE1kt4REhZvFI-22" value="+ getFields(): List&lt;EventPoint&gt;" style="text;strokeColor=none;fillColor=none;align=left;verticalAlign=top;spacingLeft=4;spacingRight=4;overflow=hidden;rotatable=0;points=[[0,0.5],[1,0.5]];portConstraint=eastwest;labelBorderColor=none;" parent="at_urgfjE1kt4REhZvFI-19" vertex="1">
          <mxGeometry y="68" width="210" height="52" as="geometry" />
        </mxCell>
        <mxCell id="at_urgfjE1kt4REhZvFI-24" value="Extends" style="endArrow=block;endSize=16;endFill=0;html=1;rounded=0;entryX=0.5;entryY=1;entryDx=0;entryDy=0;exitX=0.5;exitY=0;exitDx=0;exitDy=0;" parent="1" source="at_urgfjE1kt4REhZvFI-11" target="at_urgfjE1kt4REhZvFI-7" edge="1">
          <mxGeometry width="160" relative="1" as="geometry">
            <mxPoint x="150" y="410" as="sourcePoint" />
            <mxPoint x="310" y="410" as="targetPoint" />
          </mxGeometry>
        </mxCell>
        <mxCell id="at_urgfjE1kt4REhZvFI-25" value="Extends" style="endArrow=block;endSize=16;endFill=0;html=1;rounded=0;entryX=0.5;entryY=1;entryDx=0;entryDy=0;exitX=0.5;exitY=0;exitDx=0;exitDy=0;" parent="1" source="at_urgfjE1kt4REhZvFI-19" target="at_urgfjE1kt4REhZvFI-7" edge="1">
          <mxGeometry width="160" relative="1" as="geometry">
            <mxPoint x="680" y="370" as="sourcePoint" />
            <mxPoint x="840" y="370" as="targetPoint" />
          </mxGeometry>
        </mxCell>
        <mxCell id="at_urgfjE1kt4REhZvFI-26" value="Extends" style="endArrow=block;endSize=16;endFill=0;html=1;rounded=0;exitX=0.5;exitY=0;exitDx=0;exitDy=0;" parent="1" source="at_urgfjE1kt4REhZvFI-15" edge="1">
          <mxGeometry width="160" relative="1" as="geometry">
            <mxPoint x="130" y="360" as="sourcePoint" />
            <mxPoint x="480" y="360" as="targetPoint" />
          </mxGeometry>
        </mxCell>
        <mxCell id="Mdyc30ZYwEnbxY8DSBuU-1" value="EventPoint" style="swimlane;fontStyle=1;align=center;verticalAlign=top;childLayout=stackLayout;horizontal=1;startSize=26;horizontalStack=0;resizeParent=1;resizeParentMax=0;resizeLast=0;collapsible=1;marginBottom=0;labelBorderColor=none;" vertex="1" parent="1">
          <mxGeometry x="680" y="620" width="210" height="200" as="geometry" />
        </mxCell>
        <mxCell id="Mdyc30ZYwEnbxY8DSBuU-2" value="- String companyName;&#xa;- LocalDate startDate;&#xa;- LocalDate endDate;&#xa;- String position;&#xa;- String description;" style="text;strokeColor=none;fillColor=none;align=left;verticalAlign=top;spacingLeft=4;spacingRight=4;overflow=hidden;rotatable=0;points=[[0,0.5],[1,0.5]];portConstraint=eastwest;labelBorderColor=none;" vertex="1" parent="Mdyc30ZYwEnbxY8DSBuU-1">
          <mxGeometry y="26" width="210" height="84" as="geometry" />
        </mxCell>
        <mxCell id="Mdyc30ZYwEnbxY8DSBuU-3" value="" style="line;strokeWidth=1;fillColor=none;align=left;verticalAlign=middle;spacingTop=-1;spacingLeft=3;spacingRight=3;rotatable=0;labelPosition=right;points=[];portConstraint=eastwest;labelBorderColor=none;" vertex="1" parent="Mdyc30ZYwEnbxY8DSBuU-1">
          <mxGeometry y="110" width="210" height="8" as="geometry" />
        </mxCell>
        <mxCell id="Mdyc30ZYwEnbxY8DSBuU-4" value="+get...&#xa;+set...&#xa;" style="text;strokeColor=none;fillColor=none;align=left;verticalAlign=top;spacingLeft=4;spacingRight=4;overflow=hidden;rotatable=0;points=[[0,0.5],[1,0.5]];portConstraint=eastwest;labelBorderColor=none;" vertex="1" parent="Mdyc30ZYwEnbxY8DSBuU-1">
          <mxGeometry y="118" width="210" height="82" as="geometry" />
        </mxCell>
        <mxCell id="Mdyc30ZYwEnbxY8DSBuU-5" value="Use" style="endArrow=open;endSize=12;dashed=1;html=1;rounded=0;entryX=0.5;entryY=0;entryDx=0;entryDy=0;" edge="1" parent="1" source="at_urgfjE1kt4REhZvFI-22" target="Mdyc30ZYwEnbxY8DSBuU-1">
          <mxGeometry width="160" relative="1" as="geometry">
            <mxPoint x="640" y="640" as="sourcePoint" />
            <mxPoint x="800" y="640" as="targetPoint" />
          </mxGeometry>
        </mxCell>
      </root>
    </mxGraphModel>
  </diagram>
</mxfile>
